<?xml version="1.0" encoding="UTF-8" standalone="no"?>
<!-- Generator: Adobe Illustrator 22.0.1, SVG Export Plug-In . SVG Version: 6.00 Build 0)  -->

<svg
   xmlns:dc="http://purl.org/dc/elements/1.1/"
   xmlns:cc="http://creativecommons.org/ns#"
   xmlns:rdf="http://www.w3.org/1999/02/22-rdf-syntax-ns#"
   xmlns:svg="http://www.w3.org/2000/svg"
   xmlns="http://www.w3.org/2000/svg"
   xmlns:sodipodi="http://sodipodi.sourceforge.net/DTD/sodipodi-0.dtd"
   xmlns:inkscape="http://www.inkscape.org/namespaces/inkscape"
   version="1.1"
   id="Layer_1"
   x="0px"
   y="0px"
   viewBox="0 0 430.99838 233.3866"
   xml:space="preserve"
   inkscape:version="0.91 r13725"
   sodipodi:docname="logo1.svg"
   width="430.99838"
   height="233.3866"><metadata
     id="metadata19"><rdf:RDF><cc:Work
         rdf:about=""><dc:format>image/svg+xml</dc:format><dc:type
           rdf:resource="http://purl.org/dc/dcmitype/StillImage" /><dc:title></dc:title></cc:Work></rdf:RDF></metadata><defs
     id="defs17" /><sodipodi:namedview
     pagecolor="#ffffff"
     bordercolor="#666666"
     borderopacity="1"
     objecttolerance="10"
     gridtolerance="10"
     guidetolerance="10"
     inkscape:pageopacity="0"
     inkscape:pageshadow="2"
     inkscape:window-width="2560"
     inkscape:window-height="1314"
     id="namedview15"
     showgrid="false"
     fit-margin-top="0"
     fit-margin-left="0"
     fit-margin-right="0"
     fit-margin-bottom="0"
     inkscape:zoom="0.30729167"
     inkscape:cx="-788.83383"
     inkscape:cy="116.6866"
     inkscape:window-x="0"
     inkscape:window-y="60"
     inkscape:window-maximized="1"
     inkscape:current-layer="Layer_1" /><style
     type="text/css"
     id="style3">
	.st0{fill:#E30521;}
	.st1{fill:#1D1D1B;}
</style><g
     id="g5"
     transform="translate(-296.90163,-267.3)"><path
       class="st0"
       d="m 354.4,272 c -0.9,-2.8 -3.5,-4.7 -6.5,-4.7 l -22.4,0 c -4.5,0 -7.7,4.2 -6.6,8.5 l 23.4,91.2 c 1.1,4.3 -2.2,8.5 -6.6,8.5 l -28.5,0 c -2.8,0 -5.3,1.7 -6.3,4.3 l -3.5,9 c -1.8,4.5 1.5,9.3 6.3,9.3 l 43.1,0 c 2.9,0 5.5,1.9 6.5,4.7 l 17.1,51.4 c 0.9,2.8 3.5,4.7 6.5,4.7 l 29.8,0 c 4.6,0 7.9,-4.5 6.5,-9 L 354.4,272 Z"
       id="path7"
       inkscape:connector-curvature="0"
       style="fill:#e30521" /><path
       class="st1"
       d="m 501,381.1 c -2.8,-3.8 -1,-9.1 3.4,-10.6 33.3,-11.4 41.7,-30.8 41.7,-52.3 0,-34.7 -26.3,-50.9 -60.8,-50.9 l -96.3,0 c -5.5,0 -8.7,6.1 -5.7,10.6 2.7,4.1 5.5,8.4 8.5,12.8 1.3,1.9 3.4,3.1 5.8,3.1 l 59.5,-0.2 c 26.9,0 44.9,9.6 44.9,33.5 0,25.9 -15.8,32.4 -55.8,38 0,0 -5.6,0.3 -2.1,5.3 17.7,25 47.6,72.5 55.6,85.3 1.3,2 3.4,3.2 5.8,3.2 l 39.1,0 c 5.6,0 8.9,-6.4 5.5,-10.9 L 501,381.1 Z"
       id="path9"
       inkscape:connector-curvature="0"
       style="fill:#1d1d1b" /><path
       class="st1"
       d="m 629.8,267.3 -30.6,0 c -3.8,0 -6.9,3.1 -6.9,6.9 l 0,177.8 c 0,3.8 3.1,6.9 6.9,6.9 l 30.6,0 c 3.8,0 6.9,-3.1 6.9,-6.9 l 0,-177.8 c -0.1,-3.8 -3.1,-6.9 -6.9,-6.9 z"
       id="path11"
       inkscape:connector-curvature="0"
       style="fill:#1d1d1b" /><path
       class="st1"
       d="m 690.6,267.3 c -3.8,0 -6.9,3.1 -6.9,6.9 l 0,168.5 c 0,28.2 -1.6,39.1 -12.6,45.2 -3,1.7 -4.2,5.3 -2.9,8.5 l 0,0 c 1.2,3 4.4,4.7 7.6,4.2 34.6,-6 52.1,-30.7 52.1,-71 l 0,-155.4 c 0,-3.8 -3.1,-6.9 -6.9,-6.9 l -30.4,0 z"
       id="path13"
       inkscape:connector-curvature="0"
       style="fill:#1d1d1b" /></g></svg>