<?xml version="1.0" encoding="UTF-8" standalone="no"?>
<!-- Generator: Adobe Illustrator 22.0.1, SVG Export Plug-In . SVG Version: 6.00 Build 0)  -->

<svg
   xmlns:dc="http://purl.org/dc/elements/1.1/"
   xmlns:cc="http://creativecommons.org/ns#"
   xmlns:rdf="http://www.w3.org/1999/02/22-rdf-syntax-ns#"
   xmlns:svg="http://www.w3.org/2000/svg"
   xmlns="http://www.w3.org/2000/svg"
   xmlns:sodipodi="http://sodipodi.sourceforge.net/DTD/sodipodi-0.dtd"
   xmlns:inkscape="http://www.inkscape.org/namespaces/inkscape"
   version="1.1"
   id="Layer_1"
   x="0px"
   y="0px"
   viewBox="0 0 879.40002 233.3866"
   xml:space="preserve"
   inkscape:version="0.91 r13725"
   sodipodi:docname="arij-logo.svg"
   width="879.40002"
   height="233.3866"><metadata
     id="metadata89"><rdf:RDF><cc:Work
         rdf:about=""><dc:format>image/svg+xml</dc:format><dc:type
           rdf:resource="http://purl.org/dc/dcmitype/StillImage" /><dc:title></dc:title></cc:Work></rdf:RDF></metadata><defs
     id="defs87" /><sodipodi:namedview
     pagecolor="#ffffff"
     bordercolor="#666666"
     borderopacity="1"
     objecttolerance="10"
     gridtolerance="10"
     guidetolerance="10"
     inkscape:pageopacity="0"
     inkscape:pageshadow="2"
     inkscape:window-width="2560"
     inkscape:window-height="1314"
     id="namedview85"
     showgrid="false"
     fit-margin-top="0"
     fit-margin-left="0"
     fit-margin-right="0"
     fit-margin-bottom="0"
     inkscape:zoom="0.67871094"
     inkscape:cx="-15.038129"
     inkscape:cy="125.1866"
     inkscape:window-x="0"
     inkscape:window-y="60"
     inkscape:window-maximized="1"
     inkscape:current-layer="Layer_1" /><style
     type="text/css"
     id="style3">
	.st0{fill:#E30521;}
	.st1{fill:#1D1D1B;}
</style><g
     id="g5"
     transform="translate(-72.5,-29.3)"><g
       id="g7"><path
         class="st0"
         d="m 578.4,34 c -0.9,-2.8 -3.5,-4.7 -6.5,-4.7 l -22.4,0 c -4.5,0 -7.7,4.2 -6.6,8.5 l 23.4,91.2 c 1.1,4.3 -2.2,8.5 -6.6,8.5 l -28.5,0 c -2.8,0 -5.3,1.7 -6.3,4.3 l -3.5,9 c -1.8,4.5 1.5,9.3 6.3,9.3 l 43.1,0 c 2.9,0 5.5,1.9 6.5,4.7 l 17.1,51.4 c 0.9,2.8 3.5,4.7 6.5,4.7 l 29.8,0 c 4.6,0 7.9,-4.5 6.5,-9 L 578.4,34 Z"
         id="path9"
         inkscape:connector-curvature="0"
         style="fill:#e30521" /><path
         class="st1"
         d="m 725,143.1 c -2.8,-3.8 -1,-9.1 3.4,-10.6 33.3,-11.4 41.7,-30.8 41.7,-52.3 0,-34.7 -26.3,-50.9 -60.8,-50.9 l -96.3,0 c -5.5,0 -8.7,6.1 -5.7,10.6 2.7,4.1 5.5,8.4 8.5,12.8 1.3,1.9 3.4,3.1 5.8,3.1 l 59.5,-0.2 c 26.9,0 44.9,9.6 44.9,33.5 0,25.9 -15.8,32.4 -55.8,38 0,0 -5.6,0.3 -2.1,5.3 17.7,25 47.6,72.5 55.6,85.3 1.3,2 3.4,3.2 5.8,3.2 l 39.1,0 c 5.6,0 8.9,-6.4 5.5,-10.9 L 725,143.1 Z"
         id="path11"
         inkscape:connector-curvature="0"
         style="fill:#1d1d1b" /><path
         class="st1"
         d="m 853.8,29.3 -30.6,0 c -3.8,0 -6.9,3.1 -6.9,6.9 l 0,177.8 c 0,3.8 3.1,6.9 6.9,6.9 l 30.6,0 c 3.8,0 6.9,-3.1 6.9,-6.9 l 0,-177.8 c -0.1,-3.8 -3.1,-6.9 -6.9,-6.9 z"
         id="path13"
         inkscape:connector-curvature="0"
         style="fill:#1d1d1b" /><path
         class="st1"
         d="m 914.6,29.3 c -3.8,0 -6.9,3.1 -6.9,6.9 l 0,168.5 c 0,28.2 -1.6,39.1 -12.6,45.2 -3,1.7 -4.2,5.3 -2.9,8.5 l 0,0 c 1.2,3 4.4,4.7 7.6,4.2 34.6,-6 52.1,-30.7 52.1,-71 l 0,-155.4 c 0,-3.8 -3.1,-6.9 -6.9,-6.9 l -30.4,0 z"
         id="path15"
         inkscape:connector-curvature="0"
         style="fill:#1d1d1b" /></g><g
       id="g17"><g
         id="g19"><path
           class="st0"
           d="m 230.3,160.1 -4.8,0 0,1.3 c 0,1.8 -0.5,3.4 -1.4,4.7 -0.9,1.3 -2.2,2.4 -3.9,3.1 -1.6,0.7 -3.4,1.1 -5.4,1.1 -2.1,0 -4,-0.4 -5.7,-1.2 -1.7,-0.8 -3,-1.9 -4,-3.2 -1,-1.4 -1.5,-2.9 -1.5,-4.6 0,-1.9 0.5,-6 1.6,-12.4 l 3.7,0.2 c -0.4,2.6 -0.8,5 -1,7.3 -0.3,2.3 -0.4,3.8 -0.4,4.6 0,1.1 0.3,2.1 0.9,3 0.6,0.9 1.5,1.6 2.6,2.1 1.1,0.5 2.3,0.8 3.7,0.8 2,0 3.6,-0.5 4.9,-1.6 1.3,-1.1 2,-2.5 2,-4.2 l 0,-30.1 3.9,0 0,25.7 4.8,0 0,3.4 z"
           id="path21"
           inkscape:connector-curvature="0"
           style="fill:#e30521" /><path
           class="st0"
           d="m 248.5,140.8 c 1.2,1.1 1.8,2.8 1.8,5.4 l 0,14 -20,0 0,-3.5 16.2,0 0,-10.1 c 0,-2.6 -1.3,-3.9 -4,-3.9 -1.2,0 -4,0.2 -8.5,0.7 l -0.1,-2.7 c 1.5,-0.4 3.1,-0.7 5,-0.9 1.8,-0.3 3.4,-0.4 4.6,-0.4 2.1,-0.2 3.8,0.3 5,1.4 z m -8.3,22.6 3.7,0 0,4 -3.7,0 0,-4 z"
           id="path23"
           inkscape:connector-curvature="0"
           style="fill:#e30521" /><path
           class="st0"
           d="m 262.7,131 -8.6,1.7 -0.4,-1.5 2,-0.5 c -0.5,-0.4 -0.9,-0.8 -1.1,-1.4 -0.2,-0.5 -0.4,-1.1 -0.4,-1.7 0,-1 0.4,-1.9 1.1,-2.7 0.7,-0.8 1.7,-1.1 2.9,-1.1 1,0 2.1,0.3 3,1 l -0.5,1.8 c -0.2,-0.1 -0.4,-0.3 -0.7,-0.4 -0.3,-0.1 -0.7,-0.2 -1.1,-0.2 -0.7,0 -1.2,0.2 -1.7,0.7 -0.4,0.5 -0.7,1 -0.7,1.6 0,0.8 0.3,1.4 1,1.9 l 4.6,-1.2 0.6,2 z m -6.3,3.4 3.9,0 0,25.7 -3.9,0 0,-25.7 z"
           id="path25"
           inkscape:connector-curvature="0"
           style="fill:#e30521" /><path
           class="st0"
           d="m 301.1,160.1 -4.6,0 0,1.3 c 0,1.8 -0.5,3.4 -1.4,4.7 -0.9,1.3 -2.2,2.4 -3.9,3.1 -1.7,0.7 -3.4,1.1 -5.4,1.1 -2.1,0 -4,-0.4 -5.7,-1.2 -1.7,-0.8 -3,-1.9 -4,-3.2 -1,-1.4 -1.5,-2.9 -1.5,-4.6 0,-1.9 0.5,-6 1.6,-12.4 l 3.7,0.2 c -0.4,2.6 -0.8,5 -1,7.3 -0.3,2.3 -0.4,3.8 -0.4,4.6 0,1.1 0.3,2.1 0.9,3 0.6,0.9 1.5,1.6 2.6,2.1 1.1,0.5 2.3,0.8 3.7,0.8 2,0 3.6,-0.5 4.9,-1.6 1.3,-1.1 2,-2.5 2,-4.2 l 0,-21.4 3.9,0 0,17 4.6,0 0,3.4 z m -17.1,-24.5 3.7,0 0,4 -3.7,0 0,-4 z"
           id="path27"
           inkscape:connector-curvature="0"
           style="fill:#e30521" /><path
           class="st0"
           d="m 323.3,141.7 c 1.5,1.7 2.3,4.4 2.3,8.2 l 0,10.3 -24.5,0 0,-3.5 6.6,0 c -0.4,-2.2 -0.6,-4.4 -0.6,-6.6 0,-1.7 0.1,-3.5 0.4,-5.2 0.2,-1.8 0.5,-3.2 0.8,-4.4 0.7,-0.3 1.8,-0.6 3.1,-0.8 1.3,-0.2 2.7,-0.4 4.2,-0.4 3.6,-0.1 6.1,0.7 7.7,2.4 z m -12.1,12 c 0.1,1.2 0.3,2.2 0.4,2.9 l 10.1,0 0,-6.9 c 0,-2.5 -0.5,-4.3 -1.6,-5.4 -1.1,-1.1 -2.7,-1.7 -5,-1.7 -1.2,0 -2.3,0.1 -3.4,0.4 -0.4,2.5 -0.6,4.8 -0.6,7 -0.1,1.3 0,2.5 0.1,3.7 z"
           id="path29"
           inkscape:connector-curvature="0"
           style="fill:#e30521" /><path
           class="st0"
           d="m 344,169.2 c -1.7,-0.8 -3,-1.9 -4,-3.2 -1,-1.4 -1.5,-2.9 -1.5,-4.6 0,-1.9 0.5,-6 1.6,-12.4 l 3.7,0.2 c -0.4,2.6 -0.8,5 -1,7.3 -0.3,2.3 -0.4,3.8 -0.4,4.6 0,1.1 0.3,2.1 0.9,3 0.6,0.9 1.5,1.6 2.6,2.1 1.1,0.5 2.3,0.8 3.7,0.8 2,0 3.6,-0.5 4.9,-1.6 1.3,-1.1 2,-2.5 2,-4.2 l 0,-21.4 3.9,0 0,21.8 c 0,1.8 -0.5,3.4 -1.4,4.7 -0.9,1.3 -2.2,2.4 -3.9,3.1 -1.7,0.7 -3.4,1.1 -5.4,1.1 -2.1,-0.2 -4,-0.6 -5.7,-1.3 z m 4,-33.6 3.7,0 0,4 -3.7,0 0,-4 z"
           id="path31"
           inkscape:connector-curvature="0"
           style="fill:#e30521" /><path
           class="st0"
           d="m 386.8,160.1 -5.1,0 c -0.2,3.2 -0.9,5.7 -2,7.5 -1.1,1.8 -3,2.7 -5.6,2.7 -1.1,0 -3.3,-0.2 -6.5,-0.7 l 0,-3.5 c 2.7,0.4 4.7,0.7 6.2,0.7 0.9,0 1.7,-0.2 2.3,-0.5 0.6,-0.3 1,-1 1.3,-1.9 0.3,-1 0.5,-2.4 0.5,-4.2 l -5.6,0 c -3.2,0 -5.3,-1 -6.3,-2.9 -1,-1.9 -1.5,-4.4 -1.5,-7.2 0,-2.7 0.3,-4.9 0.9,-6.5 0.6,-1.6 1.5,-2.8 2.8,-3.6 1.3,-0.8 3.1,-1.1 5.3,-1.1 1.3,0 2.7,0.1 4.3,0.3 1.6,0.2 3,0.4 4,0.6 l 0,17 5,0 0,3.3 z m -17.5,-5.4 c 0.7,1.3 2,1.9 4.1,1.9 l 4.4,0 0,-14 c -1.3,-0.2 -2.5,-0.3 -3.6,-0.3 -2.2,0 -3.8,0.6 -4.6,1.7 -0.9,1.2 -1.3,3.1 -1.3,5.8 0.1,2.1 0.4,3.7 1,4.9 z"
           id="path33"
           inkscape:connector-curvature="0"
           style="fill:#e30521" /><path
           class="st0"
           d="m 403,156.7 0,3.5 -16.1,0 0,-3.5 6.1,0 0,-17 3.9,0 0,17 6.1,0 z m -12.6,6.7 3.5,0 0,3.9 -3.5,0 0,-3.9 z m 5.5,0 3.4,0 0,3.9 -3.4,0 0,-3.9 z"
           id="path35"
           inkscape:connector-curvature="0"
           style="fill:#e30521" /><path
           class="st0"
           d="m 425.1,141.7 c 1.5,1.7 2.3,4.4 2.3,8.2 l 0,10.3 -24.4,0 0,-3.5 6.6,0 c -0.4,-2.2 -0.6,-4.4 -0.6,-6.6 0,-1.7 0.1,-3.5 0.4,-5.2 0.2,-1.8 0.5,-3.2 0.8,-4.4 0.7,-0.3 1.8,-0.6 3.1,-0.8 1.3,-0.2 2.7,-0.4 4.2,-0.4 3.5,-0.1 6.1,0.7 7.6,2.4 z m -12,12 c 0.1,1.2 0.3,2.2 0.4,2.9 l 10.1,0 0,-6.9 c 0,-2.5 -0.5,-4.3 -1.6,-5.4 -1.1,-1.1 -2.7,-1.7 -5,-1.7 -1.2,0 -2.3,0.1 -3.4,0.4 -0.4,2.5 -0.6,4.8 -0.6,7 -0.1,1.3 0,2.5 0.1,3.7 z"
           id="path37"
           inkscape:connector-curvature="0"
           style="fill:#e30521" /><path
           class="st0"
           d="m 455.1,156.7 0,3.5 -23.6,0 0,-3.5 5.2,0 0,-20.2 3.9,0 0,20.2 7.1,0 0,-25.7 3.9,0 0,25.7 3.5,0 z"
           id="path39"
           inkscape:connector-curvature="0"
           style="fill:#e30521" /><path
           class="st0"
           d="m 476.9,156.7 0,3.5 -21.9,0 0,-3.5 7.1,0 c -0.6,-0.8 -1.2,-1.9 -1.6,-3.2 -0.5,-1.3 -0.7,-2.8 -0.7,-4.4 0,-2 0.4,-3.8 1.2,-5.3 0.8,-1.5 1.8,-2.6 3.2,-3.4 1.4,-0.8 2.9,-1.2 4.7,-1.2 1,0 2.2,0.1 3.4,0.4 1.3,0.3 2.4,0.7 3.4,1.2 l -0.2,3.5 c -0.5,-0.3 -1.5,-0.7 -2.7,-1.1 -1.3,-0.4 -2.5,-0.6 -3.5,-0.6 -1.7,0 -3,0.6 -4,1.7 -1,1.1 -1.5,2.7 -1.5,4.8 0,1.6 0.3,3.1 0.9,4.4 0.6,1.3 1.3,2.3 2.1,3.1 l 10.1,0 z"
           id="path41"
           inkscape:connector-curvature="0"
           style="fill:#e30521" /><path
           class="st0"
           d="m 488.4,169.7 -8.5,1.7 -0.4,-1.5 1.9,-0.5 c -1,-0.8 -1.4,-1.9 -1.4,-3 0,-1 0.4,-1.9 1.1,-2.7 0.7,-0.8 1.7,-1.1 2.9,-1.1 1,0 2.1,0.3 3,1 l -0.5,1.8 c -0.2,-0.1 -0.4,-0.3 -0.7,-0.4 -0.3,-0.1 -0.7,-0.2 -1.1,-0.2 -0.7,0 -1.2,0.2 -1.7,0.7 -0.4,0.4 -0.6,1 -0.6,1.6 0,0.7 0.3,1.4 0.9,1.9 l 4.6,-1.2 0.5,1.9 z m -6.7,-38.8 3.9,0 0,29.2 -3.9,0 0,-29.2 z"
           id="path43"
           inkscape:connector-curvature="0"
           style="fill:#e30521" /></g><g
         id="g45"><path
           d="m 96.7,217.3 0,3.5 -14,0 c -2.5,0 -4.5,-0.3 -6,-1 -1.5,-0.7 -2.5,-1.7 -3.2,-3.2 -0.7,-1.5 -1,-3.6 -1,-6.2 0,-2.6 0.3,-4.7 0.9,-6.2 0.6,-1.5 1.7,-2.6 3.1,-3.3 1.4,-0.7 3.4,-1 5.9,-1 1.2,0 2.9,0.1 5,0.2 2.1,0.1 3.6,0.2 4.6,0.3 l 0,17 4.7,0 z m -19.5,-2.8 c 0.4,1 1.1,1.7 2.1,2.2 1,0.4 2.3,0.7 3.9,0.7 l 5,0 0,-13.7 c -2.2,-0.2 -3.9,-0.2 -5.2,-0.2 -1.6,0 -2.9,0.2 -3.8,0.7 -0.9,0.5 -1.6,1.2 -2,2.2 -0.4,1 -0.6,2.3 -0.6,4 -0.1,1.6 0.2,3 0.6,4.1 z m 1.8,-22 3.5,0 0,4 -3.5,0 0,-4 z m 5.5,0 3.5,0 0,4 -3.4,0 0,-4 z"
           id="path47"
           inkscape:connector-curvature="0" /><path
           d="m 112.8,217.3 0,3.5 -16.1,0 0,-3.5 6.1,0 0,-17 3.9,0 0,17 6.1,0 z m -12.6,6.8 3.5,0 0,3.9 -3.5,0 0,-3.9 z m 5.5,0 3.4,0 0,3.9 -3.4,0 0,-3.9 z"
           id="path49"
           inkscape:connector-curvature="0" /><path
           d="m 122.8,200.3 0,20.5 -10,0 0,-3.5 6.1,0 0,-17 3.9,0 z m -3.8,23.8 3.7,0 0,4 -3.7,0 0,-4 z"
           id="path51"
           inkscape:connector-curvature="0" /><path
           d="m 143.1,220.8 -5.7,0 0,0.2 c 0,3.2 -0.6,5.7 -1.7,7.4 -1.1,1.7 -2.8,2.6 -5.1,2.6 -0.6,0 -1.3,0 -2.1,-0.1 l -1,-0.1 0,-3.4 c 0.9,0.1 1.6,0.1 2.2,0.1 1.2,0 2.2,-0.5 2.8,-1.5 0.6,-1 0.9,-2.4 0.9,-4.1 l 0,-21.5 3.9,0 0,17 5.7,0 0,3.4 z"
           id="path53"
           inkscape:connector-curvature="0" /><path
           d="m 165,217.3 0,3.5 -21.9,0 0,-3.5 7.1,0 c -0.6,-0.8 -1.2,-1.9 -1.6,-3.2 -0.5,-1.3 -0.7,-2.8 -0.7,-4.4 0,-2 0.4,-3.8 1.2,-5.3 0.8,-1.5 1.8,-2.6 3.2,-3.4 1.4,-0.8 2.9,-1.2 4.7,-1.2 1,0 2.2,0.1 3.4,0.4 1.3,0.3 2.4,0.7 3.4,1.2 l -0.2,3.5 c -0.5,-0.3 -1.5,-0.7 -2.7,-1.1 -1.3,-0.4 -2.5,-0.6 -3.5,-0.6 -1.7,0 -3,0.6 -4,1.7 -1,1.1 -1.5,2.7 -1.5,4.8 0,1.6 0.3,3.1 0.9,4.4 0.6,1.3 1.3,2.3 2.1,3.1 l 10.1,0 z"
           id="path55"
           inkscape:connector-curvature="0" /><path
           d="m 200.9,217.3 0,3.5 -13.9,0 c -2.5,0 -4.5,-0.3 -6,-1 -1.4,-0.7 -2.5,-1.7 -3.2,-3.2 -0.7,-1.5 -1,-3.6 -1,-6.2 0,-2.6 0.3,-4.7 0.9,-6.2 0.6,-1.5 1.7,-2.6 3.1,-3.3 1.4,-0.7 3.4,-1 5.9,-1 1.2,0 2.9,0.1 5,0.2 2.1,0.1 3.6,0.2 4.6,0.3 l 0,17 4.6,0 z m -19.5,-2.8 c 0.4,1 1.1,1.7 2.1,2.2 1,0.4 2.3,0.7 3.9,0.7 l 5,0 0,-13.7 c -2.2,-0.2 -3.9,-0.2 -5.2,-0.2 -1.6,0 -2.9,0.2 -3.8,0.7 -0.9,0.5 -1.6,1.2 -2,2.2 -0.4,1 -0.6,2.3 -0.6,4 0,1.6 0.2,3 0.6,4.1 z m 1.8,-22 3.5,0 0,4 -3.5,0 0,-4 z m 5.5,0 3.4,0 0,4 -3.4,0 0,-4 z"
           id="path57"
           inkscape:connector-curvature="0" /><path
           d="m 217,217.3 0,3.5 -16.1,0 0,-3.5 6.1,0 0,-17 3.9,0 0,17 6.1,0 z m -12.6,6.8 3.5,0 0,3.9 -3.5,0 0,-3.9 z m 5.5,0 3.4,0 0,3.9 -3.4,0 0,-3.9 z"
           id="path59"
           inkscape:connector-curvature="0" /><path
           d="m 227,200.3 0,20.5 -10,0 0,-3.5 6.1,0 0,-17 3.9,0 z m 2.5,-6 -8.6,1.7 -0.4,-1.5 2,-0.5 c -0.5,-0.4 -0.9,-0.8 -1.1,-1.4 -0.2,-0.5 -0.4,-1.1 -0.4,-1.7 0,-1 0.4,-1.9 1.1,-2.7 0.7,-0.8 1.7,-1.1 2.9,-1.1 1,0 2.1,0.3 3,1 l -0.5,1.8 c -0.2,-0.1 -0.4,-0.3 -0.7,-0.4 -0.3,-0.1 -0.7,-0.2 -1.1,-0.2 -0.7,0 -1.2,0.2 -1.7,0.7 -0.4,0.5 -0.7,1 -0.7,1.6 0,0.8 0.3,1.4 1,1.9 l 4.6,-1.2 0.6,2 z"
           id="path61"
           inkscape:connector-curvature="0" /><path
           d="m 241.6,217.3 0,3.5 -7.8,0 0,-29.2 3.9,0 0,25.7 3.9,0 z"
           id="path63"
           inkscape:connector-curvature="0" /><path
           d="m 276,217.3 0,3.5 -34.4,0 0,-3.5 5.8,0 0,-17 3.9,0 0,6.6 c 1.2,-1.5 2.3,-2.8 3.3,-3.7 1,-1 2.2,-1.7 3.5,-2.3 1.3,-0.6 2.9,-0.9 4.6,-0.9 3.4,0 5.9,1.1 7.3,3.2 1.4,2.1 2.2,4.6 2.2,7.4 l 0,6.8 3.8,0 z m -24.8,-5.6 0,5.5 17.1,0 0,-6.2 c 0,-2.2 -0.5,-4.1 -1.6,-5.6 -1.1,-1.5 -2.6,-2.2 -4.6,-2.2 -3.7,0.1 -7.3,2.9 -10.9,8.5 z"
           id="path65"
           inkscape:connector-curvature="0" /><path
           d="m 301.4,217.3 0,3.5 -25.4,0 0,-3.5 5.3,0 c -0.6,-1.6 -0.9,-3.7 -0.9,-6.6 0,-2.7 0.3,-4.8 1,-6.3 0.7,-1.5 1.7,-2.6 3.1,-3.2 1.4,-0.6 3.4,-0.9 6,-0.9 2.1,0 4.1,0.1 5.8,0.3 l 1.4,0.2 0,16.5 3.7,0 z M 284.6,215 c 0.2,0.9 0.6,1.7 0.9,2.2 l 8.3,0 0,-13.4 c -1.7,-0.1 -2.9,-0.2 -3.6,-0.2 -1.6,0 -2.9,0.2 -3.7,0.7 -0.8,0.5 -1.4,1.2 -1.8,2.3 -0.3,1 -0.5,2.5 -0.5,4.4 0,1.8 0.2,3.1 0.4,4 z m 0.3,-22.5 3.5,0 0,4 -3.5,0 0,-4 z m 5.5,0 3.4,0 0,4 -3.4,0 0,-4 z"
           id="path67"
           inkscape:connector-curvature="0" /><path
           d="m 317.6,217.3 0,3.5 -16.1,0 0,-3.5 6.1,0 0,-17 3.9,0 0,17 6.1,0 z m -12.6,-24.8 3.5,0 0,4 -3.5,0 0,-4 z m 5.5,0 3.4,0 0,4 -3.4,0 0,-4 z"
           id="path69"
           inkscape:connector-curvature="0" /><path
           d="m 348.7,205.3 c 0.3,1.8 0.4,3.1 0.4,4 l 0,11.4 -7.9,0 c -1.7,0 -3.2,-0.5 -4.6,-1.6 -1,1.1 -2.3,1.6 -4,1.6 l -15.1,0 0,-3.5 6.5,0 0,-15 3.9,0 0,15 3.4,0 c 1.2,0 2.1,-0.5 2.6,-1.5 0.6,-1 0.8,-2.3 0.8,-3.8 l 0,-9.6 3.9,0 0,9.6 c 0,1.6 -0.2,3 -0.5,4.2 0.4,0.3 0.8,0.6 1.4,0.8 0.5,0.2 1.1,0.4 1.6,0.4 l 3.9,0 0,-7.9 c 0,-1.9 -0.2,-4.9 -0.7,-9 l 3.3,-0.1 c 0.6,1.6 0.9,3.3 1.1,5 z"
           id="path71"
           inkscape:connector-curvature="0" /><path
           d="m 355.4,191.5 3.9,0 0,29.2 -3.9,0 0,-29.2 z"
           id="path73"
           inkscape:connector-curvature="0" /><path
           d="m 397.7,217.3 0,3.5 -13.9,0 c -2.5,0 -4.5,-0.3 -6,-1 -1.5,-0.7 -2.5,-1.7 -3.2,-3.2 -0.7,-1.5 -1,-3.6 -1,-6.2 0,-2.6 0.3,-4.7 0.9,-6.2 0.6,-1.5 1.7,-2.6 3.1,-3.3 1.4,-0.7 3.4,-1 5.9,-1 1.2,0 2.9,0.1 5,0.2 2.1,0.1 3.6,0.2 4.6,0.3 l 0,17 4.6,0 z m -19.5,-2.8 c 0.4,1 1.1,1.7 2.1,2.2 1,0.4 2.3,0.7 3.9,0.7 l 5,0 0,-13.7 c -2.2,-0.2 -3.9,-0.2 -5.2,-0.2 -1.6,0 -2.9,0.2 -3.8,0.7 -0.9,0.5 -1.6,1.2 -2,2.2 -0.4,1 -0.6,2.3 -0.6,4 0,1.6 0.2,3 0.6,4.1 z m 1.9,-22 3.5,0 0,4 -3.5,0 0,-4 z m 5.5,0 3.4,0 0,4 -3.4,0 0,-4 z"
           id="path75"
           inkscape:connector-curvature="0" /><path
           d="m 419.5,200.7 0,20 -21.8,0 0,-3.5 5.3,0 c -0.6,-1.6 -0.9,-3.7 -0.9,-6.6 0,-2.7 0.3,-4.8 1,-6.3 0.7,-1.5 1.7,-2.6 3.1,-3.2 1.4,-0.6 3.4,-0.9 6,-0.9 2.1,0 4.1,0.1 5.8,0.3 l 1.5,0.2 z M 406.4,215 c 0.2,0.9 0.6,1.7 0.9,2.2 l 8.3,0 0,-13.4 c -1.7,-0.1 -2.9,-0.2 -3.6,-0.2 -1.6,0 -2.9,0.2 -3.7,0.7 -0.8,0.5 -1.4,1.2 -1.8,2.3 -0.3,1 -0.5,2.5 -0.5,4.4 0,1.8 0.1,3.1 0.4,4 z m 3.2,-22.6 3.7,0 0,4 -3.7,0 0,-4 z"
           id="path77"
           inkscape:connector-curvature="0" /><path
           d="m 433.2,217.3 0,3.5 -7.8,0 0,-29.2 3.9,0 0,25.7 3.9,0 z"
           id="path79"
           inkscape:connector-curvature="0" /><path
           d="m 457.8,217.3 0,3.5 -24.6,0 0,-3.5 16.2,0 0,-10.1 c 0,-2.6 -1.3,-3.9 -4,-3.9 -1.2,0 -4,0.2 -8.5,0.7 l -0.1,-2.7 c 1.5,-0.4 3.1,-0.7 5,-0.9 1.8,-0.3 3.4,-0.4 4.6,-0.4 2.2,0 3.9,0.5 5.1,1.6 1.2,1.1 1.8,2.8 1.8,5.4 l 0,10.5 4.5,0 z"
           id="path81"
           inkscape:connector-curvature="0" /><path
           d="m 486.3,203 c 1.4,2.1 2.2,4.6 2.2,7.4 l 0,10.3 -30.7,0 0,-3.5 5.8,0 0,-17 3.9,0 0,6.6 c 1.2,-1.5 2.3,-2.8 3.3,-3.7 1,-1 2.2,-1.7 3.5,-2.3 1.3,-0.6 2.9,-0.9 4.6,-0.9 3.5,-0.1 5.9,1 7.4,3.1 z m -18.9,8.7 0,5.5 17.1,0 0,-6.2 c 0,-2.2 -0.5,-4.1 -1.6,-5.6 -1.1,-1.5 -2.6,-2.2 -4.6,-2.2 -3.7,0.1 -7.3,2.9 -10.9,8.5 z"
           id="path83"
           inkscape:connector-curvature="0" /></g></g></g></svg>